<svg width="18" height="22" viewBox="0 0 18 22" fill="none" xmlns="http://www.w3.org/2000/svg">
<path id="Vector" d="M5.99952 16.6249V17.3749C5.99952 18.1706 6.31559 18.9337 6.8782 19.4963C7.44081 20.0589 8.20387 20.3749 8.99952 20.3749C9.79517 20.3749 10.5582 20.0589 11.1208 19.4963C11.6834 18.9337 11.9995 18.1706 11.9995 17.3749V16.6249M2.26855 8.37494C2.26731 7.48545 2.44213 6.60451 2.78294 5.7829C3.12375 4.96128 3.62381 4.21525 4.25429 3.5878C4.88476 2.96035 5.6332 2.46389 6.45644 2.12704C7.27968 1.79019 8.16145 1.61961 9.05093 1.62513C12.7625 1.65272 15.7312 4.73775 15.7312 8.45968V9.12494C15.7312 12.4827 16.4337 14.4311 17.0524 15.496C17.1191 15.6098 17.1546 15.7392 17.1553 15.871C17.156 16.0029 17.1219 16.1326 17.0565 16.2471C16.991 16.3616 16.8966 16.4568 16.7826 16.5232C16.6686 16.5895 16.5392 16.6246 16.4073 16.6249H1.59173C1.45985 16.6246 1.33038 16.5895 1.2164 16.5231C1.10242 16.4568 1.00795 16.3616 0.942524 16.247C0.877099 16.1325 0.843033 16.0028 0.843761 15.8709C0.84449 15.739 0.879988 15.6096 0.946673 15.4959C1.56573 14.4309 2.26855 12.4825 2.26855 9.12494L2.26855 8.37494Z" stroke="#230052" stroke-width="1.5" stroke-linecap="round" stroke-linejoin="round"/>
</svg>
