<svg width="20" height="20" viewBox="0 0 20 20" fill="none" xmlns="http://www.w3.org/2000/svg">
<g id="Icon">
<path id="Vector" d="M13 10C13 11.6569 11.6569 13 10 13V14.5C12.4853 14.5 14.5 12.4853 14.5 10H13ZM10 13C8.34315 13 7 11.6569 7 10H5.5C5.5 12.4853 7.51472 14.5 10 14.5V13ZM7 10C7 8.34315 8.34315 7 10 7V5.5C7.51472 5.5 5.5 7.51472 5.5 10H7ZM10 7C11.6569 7 13 8.34315 13 10H14.5C14.5 7.51472 12.4853 5.5 10 5.5V7ZM5.875 2.125H14.125V0.625H5.875V2.125ZM14.125 2.125C16.1961 2.125 17.875 3.80393 17.875 5.875H19.375C19.375 2.9755 17.0245 0.625 14.125 0.625V2.125ZM17.875 5.875V14.125H19.375V5.875H17.875ZM17.875 14.125C17.875 16.1961 16.1961 17.875 14.125 17.875V19.375C17.0245 19.375 19.375 17.0245 19.375 14.125H17.875ZM14.125 17.875H5.875V19.375H14.125V17.875ZM5.875 17.875C3.80393 17.875 2.125 16.1961 2.125 14.125H0.625C0.625 17.0245 2.9755 19.375 5.875 19.375V17.875ZM2.125 14.125V5.875H0.625V14.125H2.125ZM2.125 5.875C2.125 3.80393 3.80393 2.125 5.875 2.125V0.625C2.9755 0.625 0.625 2.9755 0.625 5.875H2.125Z" fill="white"/>
<path id="Vector_2" d="M14.875 6.25C15.4963 6.25 16 5.74632 16 5.125C16 4.50368 15.4963 4 14.875 4C14.2537 4 13.75 4.50368 13.75 5.125C13.75 5.74632 14.2537 6.25 14.875 6.25Z" fill="white"/>
</g>
</svg>
