<svg width="18" height="18" viewBox="0 0 18 18" fill="none" xmlns="http://www.w3.org/2000/svg">
<g id="Icon">
<g id="Vector">
<path d="M13.875 17.25C15.739 17.25 17.25 15.739 17.25 13.875C17.25 12.011 15.739 10.5 13.875 10.5C12.011 10.5 10.5 12.011 10.5 13.875C10.5 15.739 12.011 17.25 13.875 17.25Z" stroke="white" stroke-width="1.5" stroke-linecap="round" stroke-linejoin="round"/>
<path d="M4.125 17.25C5.98896 17.25 7.5 15.739 7.5 13.875C7.5 12.011 5.98896 10.5 4.125 10.5C2.26104 10.5 0.75 12.011 0.75 13.875C0.75 15.739 2.26104 17.25 4.125 17.25Z" stroke="white" stroke-width="1.5" stroke-linecap="round" stroke-linejoin="round"/>
<path d="M13.875 7.5C15.739 7.5 17.25 5.98896 17.25 4.125C17.25 2.26104 15.739 0.75 13.875 0.75C12.011 0.75 10.5 2.26104 10.5 4.125C10.5 5.98896 12.011 7.5 13.875 7.5Z" stroke="white" stroke-width="1.5" stroke-linecap="round" stroke-linejoin="round"/>
<path d="M4.125 7.5C5.98896 7.5 7.5 5.98896 7.5 4.125C7.5 2.26104 5.98896 0.75 4.125 0.75C2.26104 0.75 0.75 2.26104 0.75 4.125C0.75 5.98896 2.26104 7.5 4.125 7.5Z" stroke="white" stroke-width="1.5" stroke-linecap="round" stroke-linejoin="round"/>
</g>
</g>
</svg>
