<svg width="25" height="24" viewBox="0 0 25 24" fill="none" xmlns="http://www.w3.org/2000/svg">
<g id="Icon / 24 px / User ">
<path id="Vector" d="M3.00586 19.8739C2.79865 20.2326 2.92143 20.6913 3.28009 20.8985C3.63875 21.1057 4.09747 20.983 4.30468 20.6243L3.00586 19.8739ZM21.1955 20.6245C21.4027 20.9831 21.8615 21.1059 22.2201 20.8987C22.5788 20.6915 22.7016 20.2328 22.4944 19.8741L21.1955 20.6245ZM4.30468 20.6243C5.16093 19.1422 6.39212 17.9116 7.87457 17.056L7.12476 15.7568C5.41433 16.744 3.99379 18.1639 3.00586 19.8739L4.30468 20.6243ZM7.87457 17.056C9.35702 16.2004 11.0385 15.75 12.7502 15.75L12.7502 14.25C10.7753 14.25 8.8352 14.7697 7.12476 15.7568L7.87457 17.056ZM12.7502 15.75C14.4618 15.75 16.1433 16.2005 17.6257 17.0561L18.3755 15.757C16.6651 14.7697 14.725 14.25 12.7502 14.25L12.7502 15.75ZM17.6257 17.0561C19.1081 17.9117 20.3393 19.1424 21.1955 20.6245L22.4944 19.8741C21.5065 18.1641 20.086 16.7442 18.3755 15.757L17.6257 17.0561ZM18.0001 9C18.0001 11.8995 15.6496 14.25 12.7502 14.25V15.75C16.4781 15.75 19.5001 12.7279 19.5001 9H18.0001ZM12.7502 14.25C9.85065 14.25 7.50005 11.8995 7.50005 9H6.00005C6.00005 12.7279 9.02226 15.75 12.7502 15.75V14.25ZM7.50005 9C7.50005 6.1005 9.85056 3.75 12.7501 3.75V2.25C9.02213 2.25 6.00005 5.27208 6.00005 9H7.50005ZM12.7501 3.75C15.6495 3.75 18.0001 6.1005 18.0001 9H19.5001C19.5001 5.27208 16.478 2.25 12.7501 2.25V3.75Z" fill="#684397"/>
</g>
</svg>
